<svg width="17" height="20" viewBox="0 0 17 20" fill="none" xmlns="http://www.w3.org/2000/svg">
<g clip-path="url(#clip0_2_75)">
<path d="M15.832 8.33301C15.832 14.1663 8.33203 19.1663 8.33203 19.1663C8.33203 19.1663 0.832031 14.1663 0.832031 8.33301C0.832031 6.34388 1.62221 4.43623 3.02873 3.02971C4.43525 1.62318 6.34291 0.833008 8.33203 0.833008C10.3212 0.833008 12.2288 1.62318 13.6353 3.02971C15.0419 4.43623 15.832 6.34388 15.832 8.33301Z" stroke="#393D38" stroke-width="2" stroke-linecap="round" stroke-linejoin="round"/>
<path d="M8.33203 10.833C9.71274 10.833 10.832 9.71372 10.832 8.33301C10.832 6.9523 9.71274 5.83301 8.33203 5.83301C6.95132 5.83301 5.83203 6.9523 5.83203 8.33301C5.83203 9.71372 6.95132 10.833 8.33203 10.833Z" stroke="#393D38" stroke-width="2" stroke-linecap="round" stroke-linejoin="round"/>
</g>
<defs>
<clipPath id="clip0_2_75">
<rect width="16.6667" height="20" fill="white"/>
</clipPath>
</defs>
</svg>
